<svg id="SvgjsSvg1001" width="30" height="30" xmlns="http://www.w3.org/2000/svg" version="1.1" xmlns:xlink="http://www.w3.org/1999/xlink" xmlns:svgjs="http://svgjs.com/svgjs" viewBox="0 0 112.76998901367188 112.76998901367188"><defs id="SvgjsDefs1002"></defs><rect id="SvgjsRect1008" width="112.76998901367188" height="112.76998901367188" fill="#53bdbf"></rect><g id="SvgjsG1009" transform="matrix(1,0,0,1,-19.6300048828125,-26.115001678466797)"><title>0204_data_block_verti</title><path id="color_2" d="M76,109.1,53,95.8V69.2L76,55.9l23,13.3V95.8Z" fill="#ffffff"></path><path id="color_1" d="M76,44.91,43.47,63.71v37.58L76,120.09l32.56-18.8V63.71Zm29.4,45.8L77.6,106.77v-5.14l27.82-16.06Zm-31-7.3v5.8L46.62,73.14V67.35Zm0,9.44V98L46.62,81.92V76.78ZM46.62,85.57l27.83,16.06v5.14L46.62,90.71Zm58.8-3.65L77.6,98V92.85l27.82-16.07Zm0-8.78L77.6,89.21v-5.8l27.82-16.06Zm-1.57-8.52L76,80.68,48.2,64.62,76,48.55ZM46.62,94.35l27.83,16.06v5.13L46.62,99.47Zm31,21.19v-5.13l27.82-16.06v5.12Z" fill="#313d40"></path></g></svg>
